<?xml version="1.0" encoding="UTF-8"?>
<svg id="Layer_1" data-name="Layer 1" xmlns="http://www.w3.org/2000/svg" xmlns:xlink="http://www.w3.org/1999/xlink" viewBox="0 0 369.33 18.3">
  <defs>
    <style>
      .cls-1 {
        fill: none;
      }

      .cls-1, .cls-2 {
        stroke-width: 0px;
      }

      .cls-2 {
        fill: #fff;
      }

      .cls-3 {
        clip-path: url(#clippath);
      }
    </style>
    <clipPath id="clippath">
      <rect class="cls-1" y=".02" width="369.33" height="17.97"/>
    </clipPath>
  </defs>
  <g class="cls-3">
    <path class="cls-2" d="m368.21,18.3c-6.86,0-10.41-3.8-13.26-6.85-2.56-2.73-4.4-4.71-8.34-4.71s-5.78,1.98-8.34,4.71c-2.85,3.05-6.4,6.85-13.26,6.85s-10.41-3.8-13.26-6.85c-2.56-2.73-4.4-4.71-8.34-4.71s-5.78,1.98-8.33,4.71c-2.85,3.05-6.4,6.85-13.27,6.85s-10.41-3.8-13.26-6.85c-2.55-2.73-4.4-4.71-8.33-4.71s-5.78,1.98-8.34,4.71c-2.85,3.05-6.4,6.85-13.26,6.85s-10.41-3.8-13.26-6.85c-2.56-2.73-4.4-4.71-8.34-4.71s-5.78,1.98-8.34,4.71c-2.85,3.05-6.4,6.85-13.26,6.85s-10.41-3.8-13.26-6.85c-2.55-2.73-4.4-4.71-8.33-4.71s-5.78,1.98-8.34,4.71c-2.85,3.05-6.4,6.85-13.26,6.85s-10.41-3.8-13.26-6.85c-2.55-2.73-4.4-4.71-8.33-4.71s-5.78,1.98-8.33,4.71c-2.85,3.05-6.4,6.85-13.26,6.85s-10.41-3.8-13.26-6.85c-2.56-2.73-4.4-4.71-8.33-4.71s-5.78,1.98-8.34,4.71c-2.85,3.05-6.4,6.85-13.26,6.85s-10.41-3.8-13.26-6.85c-2.55-2.73-4.4-4.71-8.33-4.71s-5.78,1.98-8.33,4.71c-2.85,3.05-6.4,6.85-13.26,6.85s-10.41-3.8-13.26-6.85c-2.55-2.73-4.4-4.71-8.33-4.71V0c6.86,0,10.41,3.8,13.26,6.85,2.56,2.73,4.4,4.71,8.34,4.71s5.78-1.97,8.33-4.71c2.85-3.05,6.4-6.85,13.26-6.85s10.41,3.8,13.26,6.85c2.56,2.73,4.4,4.71,8.33,4.71s5.78-1.97,8.34-4.71c2.85-3.05,6.4-6.85,13.26-6.85s10.41,3.8,13.26,6.85c2.56,2.73,4.4,4.71,8.34,4.71s5.78-1.97,8.33-4.71c2.85-3.05,6.4-6.85,13.26-6.85s10.41,3.8,13.26,6.85c2.55,2.73,4.4,4.71,8.33,4.71s5.78-1.97,8.34-4.71c2.85-3.05,6.4-6.85,13.26-6.85s10.41,3.8,13.26,6.85c2.56,2.73,4.4,4.71,8.33,4.71s5.78-1.97,8.34-4.71c2.85-3.05,6.4-6.85,13.26-6.85s10.41,3.8,13.26,6.85c2.55,2.73,4.4,4.71,8.34,4.71s5.78-1.97,8.33-4.71c2.85-3.05,6.4-6.85,13.26-6.85s10.41,3.8,13.26,6.85c2.56,2.73,4.4,4.71,8.33,4.71s5.78-1.97,8.34-4.71c2.85-3.05,6.4-6.85,13.26-6.85s10.41,3.8,13.26,6.85c2.56,2.73,4.4,4.71,8.34,4.71s5.78-1.97,8.33-4.71c2.85-3.05,6.4-6.85,13.27-6.85s10.41,3.8,13.26,6.85c2.55,2.73,4.4,4.71,8.34,4.71v6.74"/>
  </g>
</svg>