<?xml version="1.0" encoding="utf-8"?>
<!-- Generator: Adobe Illustrator 28.0.0, SVG Export Plug-In . SVG Version: 6.00 Build 0)  -->
<svg version="1.1" id="Layer_1" xmlns="http://www.w3.org/2000/svg" xmlns:xlink="http://www.w3.org/1999/xlink" x="0px" y="0px"
	 viewBox="0 0 369.3 18.3" style="enable-background:new 0 0 369.3 18.3;" xml:space="preserve">
<style type="text/css">
	.st0{clip-path:url(#SVGID_00000179625291548859218440000001146323994458338188_);}
	.st1{fill:#FFFFFF;}
</style>
<g>
	<defs>
		<rect id="SVGID_1_" y="0" width="369.3" height="18"/>
	</defs>
	<clipPath id="SVGID_00000131366175054026728670000001650234961784326298_">
		<use xlink:href="#SVGID_1_"  style="overflow:visible;"/>
	</clipPath>
	<g style="clip-path:url(#SVGID_00000131366175054026728670000001650234961784326298_);">
		<path class="st1" d="M368.2,18.3c-6.9,0-10.4-3.8-13.3-6.8c-2.6-2.7-4.4-4.7-8.3-4.7s-5.8,2-8.3,4.7c-2.8,3.1-6.4,6.8-13.3,6.8
			c-6.9,0-10.4-3.8-13.3-6.8c-2.6-2.7-4.4-4.7-8.3-4.7s-5.8,2-8.3,4.7c-2.9,3.1-6.4,6.8-13.3,6.8c-6.9,0-10.4-3.8-13.3-6.8
			c-2.6-2.7-4.4-4.7-8.3-4.7s-5.8,2-8.3,4.7c-2.8,3.1-6.4,6.8-13.3,6.8c-6.9,0-10.4-3.8-13.3-6.8c-2.6-2.7-4.4-4.7-8.3-4.7
			s-5.8,2-8.3,4.7c-2.8,3.1-6.4,6.8-13.3,6.8c-6.9,0-10.4-3.8-13.3-6.8c-2.6-2.7-4.4-4.7-8.3-4.7s-5.8,2-8.3,4.7
			c-2.8,3.1-6.4,6.8-13.3,6.8c-6.9,0-10.4-3.8-13.3-6.8c-2.6-2.7-4.4-4.7-8.3-4.7c-3.9,0-5.8,2-8.3,4.7c-2.9,3.1-6.4,6.8-13.3,6.8
			c-6.9,0-10.4-3.8-13.3-6.8c-2.6-2.7-4.4-4.7-8.3-4.7c-3.9,0-5.8,2-8.3,4.7c-2.8,3.1-6.4,6.8-13.3,6.8c-6.9,0-10.4-3.8-13.3-6.8
			c-2.6-2.7-4.4-4.7-8.3-4.7s-5.8,2-8.3,4.7c-2.8,3.1-6.4,6.8-13.3,6.8c-6.9,0-10.4-3.8-13.3-6.8C6.9,8.7,5,6.7,1.1,6.7V0
			c6.9,0,10.4,3.8,13.3,6.8c2.6,2.7,4.4,4.7,8.3,4.7c3.9,0,5.8-2,8.3-4.7C33.9,3.8,37.4,0,44.3,0c6.9,0,10.4,3.8,13.3,6.8
			c2.6,2.7,4.4,4.7,8.3,4.7c3.9,0,5.8-2,8.3-4.7C77,3.8,80.6,0,87.5,0c6.9,0,10.4,3.8,13.3,6.8c2.6,2.7,4.4,4.7,8.3,4.7
			c3.9,0,5.8-2,8.3-4.7c2.8-3.1,6.4-6.8,13.3-6.8c6.9,0,10.4,3.8,13.3,6.8c2.6,2.7,4.4,4.7,8.3,4.7c3.9,0,5.8-2,8.3-4.7
			C163.4,3.8,167,0,173.8,0s10.4,3.8,13.3,6.8c2.6,2.7,4.4,4.7,8.3,4.7c3.9,0,5.8-2,8.3-4.7C206.6,3.8,210.2,0,217,0
			c6.9,0,10.4,3.8,13.3,6.8c2.6,2.7,4.4,4.7,8.3,4.7c3.9,0,5.8-2,8.3-4.7c2.8-3.1,6.4-6.8,13.3-6.8s10.4,3.8,13.3,6.8
			c2.6,2.7,4.4,4.7,8.3,4.7c3.9,0,5.8-2,8.3-4.7C293,3.8,296.6,0,303.4,0c6.9,0,10.4,3.8,13.3,6.8c2.6,2.7,4.4,4.7,8.3,4.7
			s5.8-2,8.3-4.7c2.9-3.1,6.4-6.8,13.3-6.8s10.4,3.8,13.3,6.8c2.6,2.7,4.4,4.7,8.3,4.7V18.3"/>
	</g>
</g>
</svg>
